# xmcd
#
# Track frame offsets:
#	150
#	22712
#	42950
#	62287
#	84562
#	100350
#	116550
#	133637
#	142952
#	161250
#	178175
#	201920
#
# Disc length: 2908 seconds
#
# Revision: 7
# Processed by: cddbd v1.5.2PL0 Copyright (c) Steve Scherf et al.
# Submitted via: EZCDAudioConverter 8.3.2.1
#
DISCID=960b5a0c
DTITLE=Keb' Mo' - Big Wide Grin
DYEAR=2001
DGENRE=Blues
TTITLE0=Everybody Be Yoself
TTITLE1=Love Train
TTITLE2=Don't Say No
TTITLE3=Infinite Eyes
TTITLE4=Grandma's Hands
TTITLE5=Color Him Father
TTITLE6=Family Affair
TTITLE7=The Flat Foot Floogie
TTITLE8=I Am Your Mother Too
TTITLE9=Big Yellow Taxi
TTITLE10=Isn't She Lovely
TTITLE11=America The Beautiful
EXTD=
EXTT0=
EXTT1=
EXTT2=
EXTT3=
EXTT4=
EXTT5=
EXTT6=
EXTT7=
EXTT8=
EXTT9=
EXTT10=
EXTT11=
PLAYORDER=
